HIERARCHY
ROOT root
{
	OFFSET 0.000000 0.000000 0.000000
	CHANNELS 6 Xposition Yposition Zposition Zrotation Yrotation Xrotation
	JOINT lhip
	{
		OFFSET 0.058581 -0.082280 -0.017664
		CHANNELS 3 Zrotation Yrotation Xrotation
		JOINT lknee
		{
			OFFSET 0.043451 -0.386469 0.008037
			CHANNELS 3 Zrotation Yrotation Xrotation
			JOINT lankle
			{
				OFFSET -0.014790 -0.426874 -0.037428
				CHANNELS 3 Zrotation Yrotation Xrotation
				JOINT ltoe
				{
					OFFSET 0.041054 -0.060286 0.122042
					CHANNELS 3 Zrotation Yrotation Xrotation
					End Site
					{
						OFFSET 0.000000 0.000000 0.000000
					}
				}
			}
		}
	}
	JOINT rhip
	{
		OFFSET -0.060310 -0.090513 -0.013543
		CHANNELS 3 Zrotation Yrotation Xrotation
		JOINT rknee
		{
			OFFSET -0.043257 -0.383688 -0.004843
			CHANNELS 3 Zrotation Yrotation Xrotation
			JOINT rankle
			{
				OFFSET 0.019056 -0.420046 -0.034562
				CHANNELS 3 Zrotation Yrotation Xrotation
				JOINT rtoe
				{
					OFFSET -0.034840 -0.062106 0.130323
					CHANNELS 3 Zrotation Yrotation Xrotation
					End Site
					{
						OFFSET 0.000000 0.000000 0.000000
					}
				}
			}
		}
	}
	JOINT lowerback
	{
		OFFSET 0.004439 0.124404 -0.038385
		CHANNELS 3 Zrotation Yrotation Xrotation
		JOINT upperback
		{
			OFFSET 0.004488 0.137956 0.026820
			CHANNELS 3 Zrotation Yrotation Xrotation
			JOINT chest
			{
				OFFSET -0.002265 0.056032 0.002855
				CHANNELS 3 Zrotation Yrotation Xrotation
				JOINT lowerneck
				{
					OFFSET -0.013390 0.211636 -0.033468
					CHANNELS 3 Zrotation Yrotation Xrotation
					JOINT upperneck
					{
						OFFSET 0.010113 0.088937 0.050410
						CHANNELS 3 Zrotation Yrotation Xrotation
						End Site
						{
							OFFSET 0.000000 0.000000 0.000000
						}
					}
				}
				JOINT lclavicle
				{
					OFFSET 0.071702 0.114000 -0.018898
					CHANNELS 3 Zrotation Yrotation Xrotation
					JOINT lshoulder
					{
						OFFSET 0.122921 0.045205 -0.019046
						CHANNELS 3 Zrotation Yrotation Xrotation
						JOINT lelbow
						{
							OFFSET 0.255332 -0.015649 -0.022946
							CHANNELS 3 Zrotation Yrotation Xrotation
							JOINT lwrist
							{
								OFFSET 0.265709 0.012698 -0.007375
								CHANNELS 3 Zrotation Yrotation Xrotation
								End Site
								{
									OFFSET 0.000000 0.000000 0.000000
								}
							}
						}
					}
				}
				JOINT rclavicle
				{
					OFFSET -0.082954 0.112472 -0.023707
					CHANNELS 3 Zrotation Yrotation Xrotation
					JOINT rshoulder
					{
						OFFSET -0.113228 0.046853 -0.008472
						CHANNELS 3 Zrotation Yrotation Xrotation
						JOINT relbow
						{
							OFFSET -0.260127 -0.014369 -0.031269
							CHANNELS 3 Zrotation Yrotation Xrotation
							JOINT rwrist
							{
								OFFSET -0.269108 0.006794 -0.006027
								CHANNELS 3 Zrotation Yrotation Xrotation
								End Site
								{
									OFFSET 0.000000 0.000000 0.000000
								}
							}
						}
					}
				}
			}
		}
	}
}
MOTION
Frames: 11
Frame Time: 0.033333
0.267530 0.328451 1.035979 -96.515402 -1.119335 99.619560 3.033569 -8.073436 -24.662864 -4.012644 -2.207799 16.454571 5.160903 12.756454 -3.713446 0.000000 -0.000000 0.000000 -3.398776 -4.652528 4.198409 0.476842 1.920438 22.080704 7.017422 -7.905646 17.592823 0.000000 -0.000000 0.000000 -4.929875 11.808194 1.296631 0.405150 2.469417 3.426699 -1.640455 5.140360 1.629072 1.314236 -7.081413 6.157052 4.817408 -9.929024 5.800305 -11.972261 14.363891 6.273785 -43.103564 11.704433 13.731207 -108.990717 -63.198042 148.473499 21.694247 -15.317362 5.623224 14.804453 -1.760879 -1.920111 64.393856 6.907024 17.849801 133.161479 82.051337 164.169977 -22.461964 12.779552 -4.944663 
0.204650 0.324531 1.029396 -96.194910 -1.275328 99.223061 2.042834 -8.035026 -23.692286 -3.151779 -3.991925 12.555424 4.735784 11.715108 -2.200280 0.000000 -0.000000 0.000000 -4.180775 -5.414358 5.629282 -0.672465 0.775786 25.472316 7.647142 -8.574121 21.815000 0.000000 -0.000000 0.000000 -5.089628 12.046587 0.378205 0.448188 2.789547 3.980302 -1.505136 5.491253 1.455968 0.609205 -7.823440 6.971912 5.122888 -10.076074 4.967484 -11.567212 14.343130 6.328730 -42.822272 11.777318 13.937537 -114.153413 -61.496837 153.231957 22.121316 -15.267956 5.831334 14.421449 -1.808735 -1.934146 64.098584 6.138199 17.925655 141.158433 78.686568 171.752606 -22.674045 13.556105 -4.864572 
0.141937 0.320180 1.011522 -95.787421 -1.636896 98.361812 0.849539 -8.811152 -22.906500 -3.541653 -3.098063 15.508543 6.819981 11.630928 -0.672257 0.000000 -0.000000 0.000000 -4.314115 -4.565835 5.702048 -2.212771 0.263986 32.245867 7.148751 -9.986242 21.167055 0.000000 -0.000000 0.000000 -5.534756 11.808268 0.270106 0.762471 3.139838 3.733796 -1.389991 5.596454 1.904811 0.599889 -8.236931 6.382157 4.423798 -10.094072 6.028639 -11.688759 14.522542 5.711351 -42.779833 10.838802 14.572756 -117.473889 -60.237269 156.044449 22.377952 -15.536625 6.423584 14.602117 -2.372452 -2.390182 63.604046 4.655238 18.746798 146.932648 76.427898 176.919591 -22.867449 14.140676 -4.683249 
0.080179 0.315468 0.984706 -95.197051 -2.306530 97.002339 -0.908273 -9.876756 -21.815215 -4.804072 -1.104872 23.952414 9.400699 13.528268 -8.897608 0.000000 -0.000000 0.000000 -4.560011 -3.395509 4.873386 -3.286245 0.503813 41.184862 7.387573 -11.522197 16.630499 0.000000 -0.000000 0.000000 -5.990978 11.415258 1.346972 0.939820 3.128873 2.669097 -1.476113 5.390217 3.086900 1.381625 -8.100678 4.478818 3.347570 -10.235193 7.531934 -12.597927 14.593978 4.126096 -42.916917 9.391096 15.118075 -118.980602 -59.643235 157.136737 22.963571 -16.362815 6.971704 15.564118 -3.461410 -3.620305 62.996356 2.225945 19.911312 149.149303 75.711167 178.744952 -23.734733 14.313183 -4.030985 
0.021345 0.311581 0.955047 -94.417642 -3.016623 95.320900 -3.449135 -8.884854 -20.216872 -6.140570 -1.093000 32.948159 11.658293 15.866221 -18.426160 0.000000 -0.000000 0.000000 -4.886586 -2.661481 2.624388 -3.922064 1.047855 51.320475 7.670673 -12.419553 11.119651 0.000000 -0.000000 0.000000 -6.012239 10.405155 3.536724 0.634220 3.110861 1.449520 -1.761490 4.836398 4.871486 2.630667 -7.728277 1.003702 2.322797 -10.262393 8.855062 -15.921013 13.794104 1.708457 -42.570476 7.667148 15.544473 -118.799574 -60.954203 156.119866 23.315997 -16.788474 8.045994 18.194482 -4.592252 -5.276120 61.601976 -0.812279 20.414196 147.057648 77.124526 176.126441 -24.788579 14.205556 -2.412654 
-0.034116 0.310373 0.932174 -94.073324 -3.684542 94.028746 -5.327367 -7.697089 -16.727023 -7.648835 -2.006716 37.272581 12.600318 17.983949 -24.082557 0.000000 -0.000000 0.000000 -5.165287 -1.498198 -2.178213 -4.016739 1.260501 61.731858 7.277632 -13.672933 5.110038 0.000000 -0.000000 0.000000 -6.342365 9.046870 5.733583 0.211944 3.187149 1.186082 -2.123891 3.898197 5.685554 3.836210 -7.117700 -1.638607 1.937478 -9.964175 9.078273 -20.493810 11.884742 0.240720 -43.143331 4.969384 15.819154 -115.895650 -64.951142 152.430284 23.319945 -15.961917 9.640444 21.641562 -5.418486 -5.498030 59.942573 -4.102246 20.222254 137.944291 81.418930 167.205783 -25.722461 12.960342 0.780800 
-0.087978 0.309490 0.922651 -93.134087 -3.585868 93.984491 -5.981126 -6.715087 -13.044966 -8.719852 -3.811038 38.403644 12.064532 18.550450 -26.592006 0.000000 -0.000000 0.000000 -4.617017 -0.560417 -9.656398 -4.559976 0.226482 70.188619 6.211647 -15.242716 -0.826494 0.000000 -0.000000 0.000000 -6.176354 6.906058 6.699887 -0.036828 2.898555 0.911085 -2.402621 2.541466 5.925149 4.150270 -7.007147 -2.115147 2.550597 -8.996772 8.557380 -23.562929 10.216980 0.136635 -46.441899 0.851047 15.803327 -113.163120 -68.876188 149.924957 22.741541 -13.913577 10.578114 23.303773 -6.732756 -4.710143 58.570468 -8.207876 18.972153 96.583480 84.460304 126.451384 -25.593490 11.168161 2.607124 
-0.142758 0.309344 0.927224 -90.996743 -2.615169 94.248524 -5.622171 -5.255460 -8.639879 -8.990108 -7.272822 37.300239 10.213322 17.555416 -26.267071 0.000000 -0.000000 0.000000 -3.417911 -0.186939 -17.281287 -5.791298 -1.959553 74.196123 5.364011 -16.174001 -5.549761 0.000000 -0.000000 0.000000 -5.090958 3.602916 7.356274 -0.037738 2.161158 0.550584 -2.292324 0.806656 6.163762 3.460222 -7.297003 -2.216836 3.088964 -7.325227 8.200458 -25.030575 9.460466 -0.227410 -51.526849 -3.637692 16.347588 -116.419012 -70.705988 153.271197 23.362534 -13.886006 9.747952 22.981984 -8.813622 -4.148633 56.541282 -12.902263 17.322101 70.744495 82.167296 98.973062 -25.859465 11.552886 0.756315 
-0.200512 0.310441 0.944109 -88.128385 -1.253701 94.582426 -4.373897 -3.995374 -3.367029 -8.432914 -11.548562 33.830823 7.468744 16.039826 -22.203798 0.000000 -0.000000 0.000000 -2.359038 0.098097 -23.487900 -6.099501 -4.879202 72.635667 5.081407 -16.299458 -8.508476 0.000000 -0.000000 0.000000 -3.523462 -0.073299 7.803965 0.427278 0.886989 0.437200 -1.916683 -1.255897 6.188978 2.124400 -7.109853 -2.312476 2.765462 -5.267062 7.922177 -25.725639 8.676838 -0.836029 -56.075000 -7.670841 17.557523 -122.572746 -71.141026 160.026374 24.451296 -14.814611 8.452775 21.605319 -11.065338 -4.039012 53.240635 -17.561990 16.391747 74.260265 79.514466 102.661508 -25.793391 12.543074 -0.190849 
-0.261707 0.312436 0.969531 -85.516829 0.078616 95.748131 -2.276642 -2.659915 1.002610 -7.221243 -14.739648 28.826638 4.174862 14.348968 -13.769379 0.000000 -0.000000 0.000000 -1.787549 0.704250 -28.548969 -5.156108 -7.832317 65.834199 4.820382 -15.069947 -9.493658 0.000000 -0.000000 0.000000 -1.822270 -3.665544 6.846483 1.022392 -0.683926 0.811880 -1.567612 -3.207721 5.545132 0.430171 -6.367429 -1.226227 2.515806 -2.801221 6.981588 -25.631849 7.623854 -0.950684 -58.386549 -10.585266 18.768060 -128.784503 -70.762167 166.344373 25.058348 -15.593601 7.815371 19.586376 -13.089966 -3.534500 50.570187 -21.428563 15.313152 79.717847 77.446012 108.361564 -25.830962 13.243875 -1.281695 
-0.325448 0.314918 0.997516 -83.559899 1.283974 97.571278 0.402189 -0.890994 3.834336 -5.608389 -15.476326 23.436195 0.113105 12.539753 -1.443864 0.000000 -0.000000 0.000000 -1.416086 1.648925 -32.183012 -3.599169 -10.015570 54.632666 4.191907 -13.065729 -8.141082 0.000000 -0.000000 0.000000 -0.110879 -6.878241 4.905984 1.630095 -2.266427 1.402190 -1.162837 -4.818389 4.363064 -1.361489 -5.214538 0.457558 2.609376 -0.201160 5.567550 -24.430306 6.916718 -0.422028 -59.291157 -12.231654 19.270608 -132.976504 -69.744633 170.949076 24.808928 -16.223786 7.973500 16.941324 -14.817767 -2.172207 49.266857 -23.881457 13.661018 82.834712 75.986534 111.734508 -26.113921 13.809020 -2.901114 
